<svg fill="#000000" xmlns="http://www.w3.org/2000/svg"  viewBox="0 0 50 50" width="500px" height="500px"><path fill="none" stroke="#000000" stroke-linecap="round" stroke-linejoin="round" stroke-miterlimit="10" stroke-width="2" d="M25.28,45.649c-0.113,0-0.225-0.003-0.336-0.009h0c-0.071,0.006-0.145,0.009-0.22,0.009c-2.607,0-4.28-1.183-5.898-2.326c-1.117-0.789-2.171-1.535-3.413-1.741c-0.606-0.1-1.209-0.151-1.792-0.151c-1.05,0-1.879,0.162-2.484,0.28c-0.368,0.072-0.685,0.134-0.926,0.134c-0.252,0-0.525-0.054-0.643-0.46c-0.103-0.351-0.178-0.691-0.249-1.02c-0.185-0.846-0.316-1.367-0.671-1.421c-4.134-0.639-5.318-1.509-5.581-2.127c-0.037-0.088-0.059-0.177-0.064-0.265c-0.013-0.237,0.155-0.447,0.389-0.485c6.355-1.047,9.205-7.542,9.324-7.818c0.003-0.008,0.007-0.015,0.01-0.023c0.389-0.788,0.465-1.473,0.227-2.033c-0.436-1.028-1.859-1.48-2.8-1.778c-0.23-0.073-0.449-0.142-0.621-0.21c-1.879-0.743-2.035-1.505-1.961-1.894c0.126-0.662,1.011-1.124,1.726-1.124c0.196,0,0.369,0.035,0.514,0.103c0.845,0.396,1.607,0.597,2.264,0.597c0.908,0,1.305-0.382,1.353-0.432c-0.023-0.43-0.052-0.879-0.081-1.343c-0.189-3.005-0.424-6.738,0.527-8.869c2.849-6.388,8.891-6.884,10.675-6.884c0.046,0,0.782-0.008,0.782-0.008l0.106,0c1.788,0,7.843,0.497,10.694,6.889c0.951,2.132,0.716,5.869,0.526,8.871l-0.008,0.131c-0.026,0.418-0.052,0.824-0.073,1.213c0.045,0.046,0.41,0.397,1.233,0.429h0.001c0.626-0.024,1.345-0.223,2.134-0.593c0.231-0.108,0.488-0.131,0.663-0.131c0.267,0,0.538,0.052,0.763,0.146l0.014,0.006c0.638,0.226,1.056,0.674,1.065,1.141c0.008,0.44-0.328,1.102-1.976,1.753c-0.171,0.067-0.389,0.137-0.621,0.21c-0.943,0.299-2.365,0.75-2.8,1.778c-0.238,0.561-0.162,1.244,0.227,2.033c0.003,0.008,0.007,0.015,0.01,0.023c0.118,0.276,2.966,6.769,9.324,7.817c0.235,0.039,0.402,0.248,0.389,0.486c-0.005,0.089-0.027,0.179-0.065,0.266c-0.262,0.613-1.445,1.483-5.58,2.122c-0.338,0.052-0.469,0.492-0.67,1.415c-0.073,0.336-0.148,0.666-0.25,1.013c-0.088,0.301-0.276,0.442-0.592,0.442h-0.051c-0.219,0-0.531-0.039-0.925-0.117c-0.7-0.137-1.485-0.263-2.484-0.263c-0.583,0-1.187,0.051-1.793,0.151c-1.241,0.207-2.294,0.951-3.409,1.739C29.56,44.466,27.887,45.649,25.28,45.649z"/></svg>